<mxfile host="app.diagrams.net" modified="2021-07-03T03:36:47.695Z" agent="5.0 (Windows NT 10.0; Win64; x64) AppleWebKit/537.36 (KHTML, like Gecko) Chrome/91.0.4472.106 Safari/537.36" etag="-1Khqdb_CeNYPjSRM7Ay" version="14.8.4" type="github">
  <diagram id="Tqb8XfZFnWhs4RnOPVSt" name="Page-1">
    <mxGraphModel dx="1483" dy="714" grid="1" gridSize="10" guides="1" tooltips="1" connect="1" arrows="1" fold="1" page="1" pageScale="1" pageWidth="827" pageHeight="1169" math="0" shadow="0">
      <root>
        <mxCell id="0" />
        <mxCell id="1" parent="0" />
        <mxCell id="1SHXdz2eT3KARWb7SkWn-1" value="NetWork GateWay" style="rounded=1;whiteSpace=wrap;html=1;" vertex="1" parent="1">
          <mxGeometry x="480" y="120" width="120" height="60" as="geometry" />
        </mxCell>
        <mxCell id="1SHXdz2eT3KARWb7SkWn-2" value="MCU" style="rounded=1;whiteSpace=wrap;html=1;" vertex="1" parent="1">
          <mxGeometry x="1230" y="120" width="120" height="60" as="geometry" />
        </mxCell>
        <mxCell id="1SHXdz2eT3KARWb7SkWn-3" value="Remote User" style="rounded=1;whiteSpace=wrap;html=1;" vertex="1" parent="1">
          <mxGeometry x="140" y="120" width="120" height="60" as="geometry" />
        </mxCell>
        <mxCell id="1SHXdz2eT3KARWb7SkWn-4" value="" style="endArrow=none;dashed=1;html=1;entryX=0.5;entryY=1;entryDx=0;entryDy=0;" edge="1" parent="1" target="1SHXdz2eT3KARWb7SkWn-1">
          <mxGeometry width="50" height="50" relative="1" as="geometry">
            <mxPoint x="540" y="260" as="sourcePoint" />
            <mxPoint x="440" y="230" as="targetPoint" />
          </mxGeometry>
        </mxCell>
        <mxCell id="1SHXdz2eT3KARWb7SkWn-5" value="" style="endArrow=none;dashed=1;html=1;entryX=0.5;entryY=1;entryDx=0;entryDy=0;" edge="1" parent="1" target="1SHXdz2eT3KARWb7SkWn-2">
          <mxGeometry width="50" height="50" relative="1" as="geometry">
            <mxPoint x="1290" y="810" as="sourcePoint" />
            <mxPoint x="1289.5" y="170" as="targetPoint" />
          </mxGeometry>
        </mxCell>
        <mxCell id="1SHXdz2eT3KARWb7SkWn-6" value="" style="endArrow=none;dashed=1;html=1;entryX=0.5;entryY=1;entryDx=0;entryDy=0;exitX=0.5;exitY=0;exitDx=0;exitDy=0;exitPerimeter=0;" edge="1" parent="1" source="1SHXdz2eT3KARWb7SkWn-28">
          <mxGeometry width="50" height="50" relative="1" as="geometry">
            <mxPoint x="200" y="610" as="sourcePoint" />
            <mxPoint x="200" y="180" as="targetPoint" />
          </mxGeometry>
        </mxCell>
        <mxCell id="1SHXdz2eT3KARWb7SkWn-7" value="" style="endArrow=classic;html=1;" edge="1" parent="1">
          <mxGeometry width="50" height="50" relative="1" as="geometry">
            <mxPoint x="800" y="530" as="sourcePoint" />
            <mxPoint x="1290" y="530" as="targetPoint" />
          </mxGeometry>
        </mxCell>
        <mxCell id="1SHXdz2eT3KARWb7SkWn-18" value="" style="edgeStyle=orthogonalEdgeStyle;rounded=0;orthogonalLoop=1;jettySize=auto;html=1;" edge="1" parent="1" source="1SHXdz2eT3KARWb7SkWn-8" target="1SHXdz2eT3KARWb7SkWn-17">
          <mxGeometry relative="1" as="geometry" />
        </mxCell>
        <mxCell id="1SHXdz2eT3KARWb7SkWn-8" value="GateWay&amp;nbsp;Mode" style="rhombus;whiteSpace=wrap;html=1;" vertex="1" parent="1">
          <mxGeometry x="470" y="260" width="140" height="50" as="geometry" />
        </mxCell>
        <mxCell id="1SHXdz2eT3KARWb7SkWn-9" value="Relay Mode" style="rhombus;whiteSpace=wrap;html=1;" vertex="1" parent="1">
          <mxGeometry x="600" y="340" width="140" height="50" as="geometry" />
        </mxCell>
        <mxCell id="1SHXdz2eT3KARWb7SkWn-14" value="" style="edgeStyle=orthogonalEdgeStyle;rounded=0;orthogonalLoop=1;jettySize=auto;html=1;" edge="1" parent="1" source="1SHXdz2eT3KARWb7SkWn-10" target="1SHXdz2eT3KARWb7SkWn-13">
          <mxGeometry relative="1" as="geometry" />
        </mxCell>
        <mxCell id="1SHXdz2eT3KARWb7SkWn-10" value="MCU Mode" style="rhombus;whiteSpace=wrap;html=1;" vertex="1" parent="1">
          <mxGeometry x="730" y="440" width="140" height="50" as="geometry" />
        </mxCell>
        <mxCell id="1SHXdz2eT3KARWb7SkWn-20" value="" style="edgeStyle=orthogonalEdgeStyle;rounded=0;orthogonalLoop=1;jettySize=auto;html=1;" edge="1" parent="1" source="1SHXdz2eT3KARWb7SkWn-11">
          <mxGeometry relative="1" as="geometry">
            <mxPoint x="540" y="800" as="targetPoint" />
            <Array as="points">
              <mxPoint x="800" y="800" />
            </Array>
          </mxGeometry>
        </mxCell>
        <mxCell id="1SHXdz2eT3KARWb7SkWn-11" value="MCU_DEAD" style="whiteSpace=wrap;html=1;" vertex="1" parent="1">
          <mxGeometry x="730" y="660" width="140" height="50" as="geometry" />
        </mxCell>
        <mxCell id="1SHXdz2eT3KARWb7SkWn-15" value="" style="edgeStyle=orthogonalEdgeStyle;rounded=0;orthogonalLoop=1;jettySize=auto;html=1;" edge="1" parent="1" source="1SHXdz2eT3KARWb7SkWn-13" target="1SHXdz2eT3KARWb7SkWn-11">
          <mxGeometry relative="1" as="geometry" />
        </mxCell>
        <mxCell id="1SHXdz2eT3KARWb7SkWn-13" value="1s Timeout?" style="rhombus;whiteSpace=wrap;html=1;" vertex="1" parent="1">
          <mxGeometry x="730" y="570" width="140" height="50" as="geometry" />
        </mxCell>
        <mxCell id="1SHXdz2eT3KARWb7SkWn-27" value="" style="edgeStyle=orthogonalEdgeStyle;rounded=0;orthogonalLoop=1;jettySize=auto;html=1;" edge="1" parent="1" source="1SHXdz2eT3KARWb7SkWn-17">
          <mxGeometry relative="1" as="geometry">
            <mxPoint x="200" y="290" as="targetPoint" />
            <Array as="points">
              <mxPoint x="440" y="910" />
              <mxPoint x="440" y="290" />
            </Array>
          </mxGeometry>
        </mxCell>
        <mxCell id="1SHXdz2eT3KARWb7SkWn-17" value="Replay Remote" style="whiteSpace=wrap;html=1;" vertex="1" parent="1">
          <mxGeometry x="480" y="880" width="120" height="60" as="geometry" />
        </mxCell>
        <mxCell id="1SHXdz2eT3KARWb7SkWn-23" value="Coomand to MCU" style="text;html=1;strokeColor=none;fillColor=none;align=center;verticalAlign=middle;whiteSpace=wrap;rounded=0;" vertex="1" parent="1">
          <mxGeometry x="980" y="510" width="130" height="20" as="geometry" />
        </mxCell>
        <mxCell id="1SHXdz2eT3KARWb7SkWn-24" value="" style="endArrow=classic;html=1;" edge="1" parent="1">
          <mxGeometry width="50" height="50" relative="1" as="geometry">
            <mxPoint x="800" y="740" as="sourcePoint" />
            <mxPoint x="1290" y="740" as="targetPoint" />
          </mxGeometry>
        </mxCell>
        <mxCell id="1SHXdz2eT3KARWb7SkWn-25" value="Reset MCU" style="text;html=1;strokeColor=none;fillColor=none;align=center;verticalAlign=middle;whiteSpace=wrap;rounded=0;" vertex="1" parent="1">
          <mxGeometry x="980" y="720" width="130" height="20" as="geometry" />
        </mxCell>
        <mxCell id="1SHXdz2eT3KARWb7SkWn-28" value="MCU_DEAD?" style="rhombus;whiteSpace=wrap;html=1;" vertex="1" parent="1">
          <mxGeometry x="130" y="330" width="140" height="50" as="geometry" />
        </mxCell>
      </root>
    </mxGraphModel>
  </diagram>
</mxfile>
